<svg id="Layer_1" data-name="Layer 1" xmlns="http://www.w3.org/2000/svg" viewBox="0 0 487.66 220.2"><defs><style>.cls-1{fill:#221f1f;}.cls-2{fill:#411e60;}</style></defs><title>degondABA-logo3</title><path class="cls-1" d="M1368.33,555a15.66,15.66,0,0,0,10.83,4.47c4.71,0,8.57-1.84,8.57-6.85,0-4.65-3.79-7.22-8.14-9.85-5-3.06-10.22-6.18-10.22-13,0-7,5.75-11.26,14.5-11.26a24.46,24.46,0,0,1,9.61,1.77l0.31,9.06h-0.18c-2-4.65-5.69-7.77-10.52-7.77-3.92,0-6.73,2.26-6.73,6.24,0,4.41,4.1,6.85,8.5,9.48,5.14,3.06,10.4,6.49,10.4,13.52,0,8.2-6.36,12.05-14.38,12.05-7.34,0-11.44-3.67-13.34-7.1Z" transform="translate(-1206.17 -369.9)"/><path class="cls-1" d="M1380.81,408.69c0-2.94-1.59-3.49-4.71-3.49-4.28,0-8.38,1.16-9.24,5.57h-0.24l0.31-8.69h35.43l0.31,8.69h-0.18c-0.86-4.41-5-5.57-9.24-5.57-3.12,0-4.65.55-4.65,3.49v30.65c0,1,.18,5.38,1.59,5.38v0.18h-9.36V408.69Z" transform="translate(-1206.17 -369.9)"/><path class="cls-1" d="M1407.67,398.66c1.41,0,4.89-.12,7.34-1.59v22a11.22,11.22,0,0,1,9.61-4.59c6.55,0,10.16,3.67,10.16,10.28v14.44c0,1,0,5.57,1.41,5.57v0.18h-8.75V426.43c0-5-1.47-8-5.51-8-4.22,0-6.91,3.18-6.91,7.77v13c0,1,0,5.57,1.41,5.57v0.18h-8.75V398.66Z" transform="translate(-1206.17 -369.9)"/><path class="cls-1" d="M1468.49,440.32c-2.75,3.49-7,5.32-12.05,5.32-9.48,0-15.3-6.12-15.3-15.48,0-8.93,5.38-15.73,14.56-15.73,10.16,0,13.46,7.83,13.46,14.44H1449c0,7.28,2.51,13.34,10.52,13.34a12.33,12.33,0,0,0,8-2.81ZM1461,426.25c-0.06-4.59-2-9.06-5.87-9.06s-5.57,4.34-6,9.06H1461Z" transform="translate(-1206.17 -369.9)"/><path class="cls-1" d="M1456.95,466.69v1.93a13.08,13.08,0,0,0-6.72-1.6c-8.49,0-14.35,5.38-14.35,13.4,0,7.86,5.49,13.51,14.14,13.51a12.68,12.68,0,0,0,6.93-1.79v5c0,5.63-1.53,10.65-6.61,10.65-3.93,0-6.45-3-7.53-7.64h-0.08a4.82,4.82,0,0,0-2.1,8.72,13.42,13.42,0,0,0,7.64,2.52,28.15,28.15,0,0,0,5.47-.51c5.83-1.15,10.55-7.4,10.55-13.35V465C1461.78,466.57,1458.36,466.69,1456.95,466.69Zm-6.35,24.81c-5.49,0-7.81-6-7.81-11.92s2.43-10.18,7-10.18c5.33,0,7.49,5.91,7.49,11.71S1455.19,491.5,1450.6,491.5Z" transform="translate(-1206.17 -369.9)"/><path class="cls-1" d="M1397.88,498a4.24,4.24,0,0,0-3.86-2.69c-3.12,0-5.26,3.24-11.69,3.24-9,0-14.07-6.73-14.07-15.3,0-9.36,6.12-15.85,15.11-15.85a14,14,0,0,1,7.65,2.08V451.61c1.41,0,4.83-.12,7.34-1.65v48h-0.49ZM1391,477.31c0-4.1-2.75-7.16-7-7.16-5.2,0-7.77,4.71-7.77,12.12,0,7.77,2.75,13.4,8.14,13.4,5.08,0,6.61-5,6.61-10.65v-7.71Z" transform="translate(-1206.17 -369.9)"/><path class="cls-1" d="M1432.57,493.28c-2.75,3.49-7,5.32-12.05,5.32-9.48,0-15.3-6.12-15.3-15.48,0-8.93,5.38-15.73,14.56-15.73,10.16,0,13.46,7.83,13.46,14.44h-20.13c0,7.28,2.51,13.34,10.52,13.34a12.33,12.33,0,0,0,8-2.81Zm-7.47-14.07c-0.06-4.59-2-9.06-5.87-9.06s-5.57,4.34-6,9.06h11.87Z" transform="translate(-1206.17 -369.9)"/><path class="cls-1" d="M1484.76,467.4c9.67,0,16.21,6,16.21,15.24s-6.55,16-16.46,16-16.4-6.55-16.4-15.66C1468.12,473.64,1474.91,467.4,1484.76,467.4Zm8.2,16.34c0-6.73-2.51-13.58-8.69-13.58-5.32,0-8.14,4.9-8.14,11.81s2.69,13.83,9.06,13.83C1490.52,495.79,1493,490.4,1493,483.73Z" transform="translate(-1206.17 -369.9)"/><path class="cls-1" d="M1507.52,469.11c1.41,0,4.89-.12,7.34-1.59V472c2-3,5.38-4.65,9.67-4.65,6.49,0,10.1,3.67,10.1,10.28v14.44c0,1,0,5.57,1.41,5.57v0.18h-8.75V479.39c0-5-1.47-8-5.51-8-4.22,0-6.91,3.18-6.91,8.32v12.42c0,1,0,5.57,1.41,5.57v0.18h-8.75V469.11Z" transform="translate(-1206.17 -369.9)"/><path class="cls-1" d="M1570.54,498a4.24,4.24,0,0,0-3.86-2.69c-3.12,0-5.26,3.24-11.69,3.24-9,0-14.07-6.73-14.07-15.3,0-9.36,6.12-15.85,15.11-15.85a14,14,0,0,1,7.65,2.08V451.61c1.41,0,4.83-.12,7.34-1.65v48h-0.49Zm-6.85-20.68c0-4.1-2.75-7.16-7-7.16-5.2,0-7.77,4.71-7.77,12.12,0,7.77,2.75,13.4,8.14,13.4,5.08,0,6.61-5,6.61-10.65v-7.71Z" transform="translate(-1206.17 -369.9)"/><path class="cls-1" d="M1575.62,497.87a75.08,75.08,0,0,0,3.3-7.28l15.48-36.71h2.94l14,34.14c1.1,2.63,3.92,9.18,5.81,9.67v0.18h-9.85l-5.38-13.16h-16.15l-3.12,7.71c-1,2.51-1.9,4.83-.67,5.26v0.18h-6.36Zm25-16.4-6.79-16.64-6.73,16.64h13.52Z" transform="translate(-1206.17 -369.9)"/><path class="cls-1" d="M1621.45,459.81a11.42,11.42,0,0,0-1-4.53V455h12.18c8.57,0,14.93,2.57,14.93,9.73,0,5.2-3.37,8.69-8,10,6.3,1,10.89,5,10.89,11.32,0,8.2-7.4,11.75-16.21,11.75h-12.85V459.81Zm10.71,14.2c5.75,0,7.83-3.3,7.83-8,0-5.94-3.3-8.08-8.08-8.08a16.71,16.71,0,0,0-2.63.24v15.24c0,0.55.24,0.61,0.86,0.61h2Zm-2.88,19.34c0,1.22,2,1.53,3.85,1.53,5.94,0,8.75-2.69,8.75-8.51,0-7-3.92-9.36-10.71-9.36h-1.9v16.34Z" transform="translate(-1206.17 -369.9)"/><path class="cls-1" d="M1652.28,497.87a75.08,75.08,0,0,0,3.3-7.28l15.48-36.71H1674L1688,488c1.1,2.63,3.92,9.18,5.81,9.67v0.18H1684l-5.38-13.16h-16.15l-3.12,7.71c-1,2.51-1.9,4.83-.67,5.26v0.18h-6.36Zm25-16.4-6.79-16.64-6.73,16.64h13.52Z" transform="translate(-1206.17 -369.9)"/><path class="cls-1" d="M1427.37,557.61c-2.63,3.61-6.91,5.32-11.81,5.32-8.87,0-15.05-5.93-15.05-15.48s5.87-15.73,16.52-15.73c3.55,0,7,.61,9,1.77l0.24,8h-0.18c-2-4.47-4.77-6.91-9.3-6.91-6.24,0-8.26,5.69-8.26,11.44,0,8.69,3.67,13.52,10.28,13.52a11.29,11.29,0,0,0,7.71-2.75Z" transform="translate(-1206.17 -369.9)"/><path class="cls-1" d="M1432.51,515.94c1.41,0,4.89-.12,7.34-1.59v22a11.22,11.22,0,0,1,9.61-4.59c6.55,0,10.16,3.67,10.16,10.28v14.44c0,1,0,5.57,1.41,5.57v0.18h-8.75V543.72c0-5-1.47-8-5.51-8-4.22,0-6.91,3.18-6.91,7.77v13c0,1,0,5.57,1.41,5.57v0.18h-8.75V515.94Z" transform="translate(-1206.17 -369.9)"/><path class="cls-1" d="M1482.62,531.73c9.67,0,16.21,6,16.21,15.24s-6.55,16-16.46,16-16.4-6.55-16.4-15.66C1466,538,1472.77,531.73,1482.62,531.73Zm8.2,16.34c0-6.73-2.51-13.58-8.69-13.58-5.32,0-8.14,4.9-8.14,11.81s2.69,13.83,9.06,13.83C1488.37,560.12,1490.82,554.74,1490.82,548.07Z" transform="translate(-1206.17 -369.9)"/><path class="cls-1" d="M1520.19,531.73c9.67,0,16.21,6,16.21,15.24s-6.55,16-16.46,16-16.4-6.55-16.4-15.66C1503.55,538,1510.34,531.73,1520.19,531.73Zm8.2,16.34c0-6.73-2.51-13.58-8.69-13.58-5.32,0-8.14,4.9-8.14,11.81s2.69,13.83,9.06,13.83C1525.94,560.12,1528.39,554.74,1528.39,548.07Z" transform="translate(-1206.17 -369.9)"/><path class="cls-1" d="M1542.95,515.94c1.35,0,4.89-.12,7.34-1.59v42.1c0,1,0,5.57,1.41,5.57v0.18h-8.75V515.94Z" transform="translate(-1206.17 -369.9)"/><path class="cls-2" d="M1261.8,369.9c-12.83,6.7-24,20.94-22.12,36.43,1.24,11.77,14.25,16.1,23.54,22.3,5.57,4.34,9.91,8.05,14.25,13.63,5,6.42,6.5,14.28,8.81,21.87,3.32,10.93,8.63,24.63,21.89,24.38,4.33-14.33,22.45-24.92,36.67-19.2a13.67,13.67,0,0,0-10.64-6.05c-0.57.07-1.81,0.07-2.42,0.07-6.19-10.53-18.58-3.72-27.87-6.81-1.86-1.24-4.34-1.86-5-4.65a13.28,13.28,0,0,0,9.26,12.65c-1.87,1.88-2.37,2.38-3.12,3.25a19.31,19.31,0,0,1-8-25.93c1.34,4,6.24,5.64,10.07,4.67,4.42-1.13,7.33-5.47,7.65-9.88,0.64-9-7.9-18-16.86-18,7.66-4.4,18.29-5,25.91-.21-3.6-10.86-17.09-13.3-27.06-13.07a46.58,46.58,0,0,1,27.37-.16,47.11,47.11,0,0,1,34,43.08c1.1,22.92-15.21,43.49-36.87,50-10,3-21.25,3.86-29.75,10.61-2.19,1.74-4,3.59-4.69,6.38-0.72,3-.06,5.76.29,8.71a15.52,15.52,0,0,1-5.57,13.89c-0.21-3.2-1.41-6.86-4.67-8.12-3.85-1.48-8.26.91-11.25,3.21-5.88,4.53-9.35,12.26-6,19.37,3.77,8.07,14.35,11.47,22.4,8.15,9.08-3.74,14.77-15.19,12.3-24.68,10.5,5.38,5.78,19.85,5.22,29a44.86,44.86,0,0,0,14.84-30.06c4,15.29.87,32-10.9,43.78-10.53,9.91-25.39,14.25-39,9.91-1.24-.62-3.1-1.24-4.34-1.86-14.87-6.81-22.92-23.54-22.3-39.64,0-5.57-5.57-11.15-11.15-7.43-10.53,7.43-6.81,22.92-5,34.12,0.92,4.32,1.45,10.06,5.31,12.91a47.92,47.92,0,0,1-15.88-18.19c-9.39-18.83-5-42.36,9.56-57.27a47.85,47.85,0,0,1,13.19-9.58c5.76-2.8,11.9-4.1,18-5.72,4.21-1.11,12.45-4.17,9.58-10.07-2.5-5.14-10-4.83-14.74-5-10.86-.34-23.18-1.16-30.95-9.79-6.51-7.23-8.36-17.85-6.45-27.24l0.43-1.87c-0.29,5.44,3.58,10.66,8.56,12.61,3.56,1.39,8.94,1.17,11.3-2.28,3.1-4.53-.38-11.19-2.12-15.6-2.3-5.85-5.12-11.62-5.91-17.92-2.77-22,16.31-45.38,38-48.46Z" transform="translate(-1206.17 -369.9)"/><path class="cls-2" d="M1317.66,461.19a45.6,45.6,0,0,1,6.21-.37,1.61,1.61,0,1,1-.6,3.07A45.61,45.61,0,0,1,1317.66,461.19Z" transform="translate(-1206.17 -369.9)"/></svg>