<svg id="Layer_1" data-name="Layer 1" xmlns="http://www.w3.org/2000/svg" viewBox="0 0 590 266.42"><defs><style>.cls-1{fill:#221f1f;}.cls-2{fill:#422361;}</style></defs><title>degondABA-logo1</title><path class="cls-1" d="M211.19,483.79a19,19,0,0,0,13.1,5.4c5.7,0,10.36-2.22,10.36-8.29,0-5.63-4.59-8.74-9.85-11.92-6.07-3.7-12.36-7.48-12.36-15.69,0-8.51,7-13.62,17.54-13.62,4.07,0,8.66.74,11.62,2.15l0.37,11h-0.22c-2.44-5.63-6.88-9.4-12.73-9.4-4.74,0-8.14,2.74-8.14,7.55,0,5.33,5,8.29,10.29,11.47,6.22,3.7,12.58,7.85,12.58,16.36,0,9.92-7.7,14.58-17.4,14.58-8.88,0-13.84-4.44-16.14-8.59Z" transform="translate(-15 -259.79)"/><path class="cls-1" d="M226.29,306.72c0-3.55-1.93-4.22-5.7-4.22-5.18,0-10.14,1.41-11.18,6.74h-0.3l0.37-10.51h42.86l0.37,10.51H252.5c-1-5.33-6-6.74-11.18-6.74-3.78,0-5.63.67-5.63,4.22v37.09c0,1.26.22,6.51,1.92,6.51v0.22H226.29V306.72Z" transform="translate(-15 -259.79)"/><path class="cls-1" d="M258.79,294.58c1.7,0,5.92-.15,8.88-1.92v26.58c2.59-3.55,6.44-5.55,11.62-5.55,7.92,0,12.29,4.44,12.29,12.44v17.47c0,1.26,0,6.74,1.7,6.74v0.22H282.7V328.19c0-6.07-1.78-9.7-6.66-9.7-5.11,0-8.36,3.85-8.36,9.4v15.69c0,1.26,0,6.74,1.7,6.74v0.22H258.79v-56Z" transform="translate(-15 -259.79)"/><path class="cls-1" d="M332.37,345c-3.33,4.22-8.51,6.44-14.58,6.44-11.47,0-18.51-7.4-18.51-18.73,0-10.81,6.51-19,17.62-19,12.29,0,16.29,9.48,16.29,17.47H308.83c0,8.81,3,16.14,12.73,16.14a14.91,14.91,0,0,0,9.7-3.41Zm-9-17c-0.07-5.55-2.37-11-7.11-11s-6.74,5.26-7.25,11h14.36Z" transform="translate(-15 -259.79)"/><path class="cls-1" d="M318.41,376.9v2.33a15.83,15.83,0,0,0-8.13-1.94c-10.28,0-17.36,6.51-17.36,16.21,0,9.51,6.64,16.34,17.1,16.34a15.34,15.34,0,0,0,8.39-2.17v6c0,6.81-1.85,12.88-8,12.88-4.75,0-7.8-3.63-9.11-9.24h-0.1a5.83,5.83,0,0,0-2.54,10.55,16.23,16.23,0,0,0,9.24,3.05,34.06,34.06,0,0,0,6.62-.62c7.05-1.4,12.76-9,12.76-16.15V374.9C324.25,376.75,320.11,376.9,318.41,376.9Zm-7.69,30c-6.64,0-9.45-7.28-9.45-14.42s2.94-12.32,8.49-12.32c6.45,0,9.06,7.15,9.06,14.17S316.27,406.91,310.72,406.91Z" transform="translate(-15 -259.79)"/><path class="cls-1" d="M246.95,414.77a5.12,5.12,0,0,0-4.66-3.26c-3.77,0-6.37,3.92-14.14,3.92-10.88,0-17-8.14-17-18.51,0-11.33,7.4-19.17,18.28-19.17a16.91,16.91,0,0,1,9.25,2.52V358.65c1.7,0,5.85-.15,8.88-2v58.11h-0.59Zm-8.29-25c0-5-3.33-8.66-8.44-8.66-6.29,0-9.4,5.7-9.4,14.66,0,9.4,3.33,16.21,9.85,16.21,6.14,0,8-6.07,8-12.88v-9.33Z" transform="translate(-15 -259.79)"/><path class="cls-1" d="M288.92,409.06c-3.33,4.22-8.51,6.44-14.58,6.44-11.47,0-18.51-7.4-18.51-18.73,0-10.81,6.51-19,17.62-19,12.29,0,16.29,9.48,16.29,17.47H265.38c0,8.81,3,16.14,12.73,16.14a14.91,14.91,0,0,0,9.7-3.41Zm-9-17c-0.07-5.55-2.37-11-7.11-11s-6.74,5.26-7.25,11h14.36Z" transform="translate(-15 -259.79)"/><path class="cls-1" d="M352.06,377.75c11.7,0,19.62,7.26,19.62,18.43s-7.92,19.32-19.91,19.32-19.84-7.92-19.84-19C331.92,385.3,340.14,377.75,352.06,377.75ZM362,397.52c0-8.14-3-16.43-10.51-16.43-6.44,0-9.85,5.92-9.85,14.29s3.26,16.73,11,16.73C359,412.1,362,405.59,362,397.52Z" transform="translate(-15 -259.79)"/><path class="cls-1" d="M379.6,379.82c1.7,0,5.92-.15,8.88-1.93v5.48c2.44-3.63,6.51-5.63,11.7-5.63,7.85,0,12.21,4.44,12.21,12.44v17.47c0,1.26,0,6.74,1.7,6.74v0.22H403.51V392.26c0-6.07-1.78-9.7-6.66-9.7-5.11,0-8.36,3.85-8.36,10.07v15c0,1.26,0,6.74,1.7,6.74v0.22H379.6V379.82Z" transform="translate(-15 -259.79)"/><path class="cls-1" d="M455.84,414.77a5.12,5.12,0,0,0-4.66-3.26c-3.77,0-6.37,3.92-14.14,3.92-10.88,0-17-8.14-17-18.51,0-11.33,7.4-19.17,18.28-19.17a16.91,16.91,0,0,1,9.25,2.52V358.65c1.7,0,5.85-.15,8.88-2v58.11h-0.59Zm-8.29-25c0-5-3.33-8.66-8.44-8.66-6.29,0-9.4,5.7-9.4,14.66,0,9.4,3.33,16.21,9.85,16.21,6.14,0,8-6.07,8-12.88v-9.33Z" transform="translate(-15 -259.79)"/><path class="cls-1" d="M462,414.62a90.83,90.83,0,0,0,4-8.81l18.73-44.42h3.55l17,41.31c1.33,3.18,4.74,11.1,7,11.7v0.22H500.33l-6.51-15.92H474.27L470.5,408c-1.26,3-2.29,5.85-.81,6.37v0.22H462Zm30.2-19.84L484,374.64l-8.14,20.14h16.36Z" transform="translate(-15 -259.79)"/><path class="cls-1" d="M517.43,368.57c0-.89-0.3-4.07-1.18-5.48v-0.3H531c10.36,0,18.06,3.11,18.06,11.77,0,6.29-4.07,10.51-9.62,12.14,7.62,1.26,13.18,6,13.18,13.7,0,9.92-9,14.21-19.62,14.21H517.43v-46Zm13,17.17c7,0,9.48-4,9.48-9.7,0-7.18-4-9.77-9.77-9.77a20.22,20.22,0,0,0-3.18.3V385c0,0.67.3,0.74,1,.74h2.44Zm-3.48,23.39c0,1.48,2.44,1.85,4.66,1.85,7.18,0,10.59-3.26,10.59-10.29,0-8.44-4.74-11.33-13-11.33H526.9v19.76Z" transform="translate(-15 -259.79)"/><path class="cls-1" d="M554.74,414.62a90.83,90.83,0,0,0,4-8.81l18.73-44.42H581l17,41.31c1.33,3.18,4.74,11.1,7,11.7v0.22H593.08l-6.51-15.92H567L563.25,408c-1.26,3-2.29,5.85-.81,6.37v0.22h-7.7Zm30.2-19.84-8.22-20.14-8.14,20.14h16.36Z" transform="translate(-15 -259.79)"/><path class="cls-1" d="M282.63,486.9c-3.18,4.37-8.36,6.44-14.29,6.44-10.73,0-18.21-7.18-18.21-18.73s7.11-19,20-19c4.29,0,8.51.74,10.88,2.15l0.3,9.62h-0.22C278.7,462,275.3,459,269.82,459c-7.55,0-10,6.88-10,13.84,0,10.51,4.44,16.36,12.44,16.36a13.66,13.66,0,0,0,9.33-3.33Z" transform="translate(-15 -259.79)"/><path class="cls-1" d="M288.84,436.49c1.7,0,5.92-.15,8.88-1.92v26.58c2.59-3.55,6.44-5.55,11.62-5.55,7.92,0,12.29,4.44,12.29,12.44v17.47c0,1.26,0,6.74,1.7,6.74v0.22H312.75V470.1c0-6.07-1.78-9.7-6.66-9.7-5.11,0-8.36,3.85-8.36,9.4v15.69c0,1.26,0,6.74,1.7,6.74v0.22H288.84v-56Z" transform="translate(-15 -259.79)"/><path class="cls-1" d="M349.47,455.59c11.7,0,19.62,7.25,19.62,18.43s-7.92,19.32-19.91,19.32-19.84-7.92-19.84-19C329.33,463.14,337.55,455.59,349.47,455.59Zm9.92,19.77c0-8.14-3-16.43-10.51-16.43-6.44,0-9.85,5.92-9.85,14.29s3.26,16.73,11,16.73C356.43,489.94,359.39,483.42,359.39,475.35Z" transform="translate(-15 -259.79)"/><path class="cls-1" d="M394.92,455.59c11.7,0,19.62,7.25,19.62,18.43s-7.92,19.32-19.91,19.32-19.84-7.92-19.84-19C374.78,463.14,383,455.59,394.92,455.59Zm9.92,19.77c0-8.14-3-16.43-10.51-16.43-6.44,0-9.85,5.92-9.85,14.29s3.26,16.73,11,16.73C401.88,489.94,404.84,483.42,404.84,475.35Z" transform="translate(-15 -259.79)"/><path class="cls-1" d="M422.46,436.49c1.63,0,5.92-.15,8.88-1.92v50.93c0,1.26,0,6.74,1.7,6.74v0.22H422.46v-56Z" transform="translate(-15 -259.79)"/><path class="cls-2" d="M82.31,259.79c-15.52,8.1-29,25.34-26.76,44.07,1.5,14.24,17.24,19.48,28.48,27,6.74,5.25,12,9.74,17.24,16.49,6,7.76,7.87,17.27,10.66,26.46,4,13.22,10.44,29.79,26.49,29.5,5.24-17.34,27.16-30.15,44.36-23.23a16.53,16.53,0,0,0-12.87-7.32c-0.69.09-2.18,0.09-2.93,0.09-7.49-12.74-22.48-4.5-33.72-8.24-2.25-1.5-5.25-2.25-6-5.62a16.07,16.07,0,0,0,11.2,15.3c-2.27,2.27-2.87,2.87-3.78,3.93A23.37,23.37,0,0,1,125,346.8c1.62,4.83,7.55,6.82,12.18,5.64,5.35-1.36,8.87-6.62,9.25-12,0.78-10.84-9.55-21.82-20.4-21.73,9.27-5.33,22.13-6.11,31.35-.25-4.36-13.14-20.68-16.09-32.74-15.81a56.36,56.36,0,0,1,33.12-.2,57,57,0,0,1,41.15,52.12c1.33,27.73-18.4,52.62-44.61,60.52-12.15,3.66-25.71,4.67-36,12.84-2.64,2.1-4.86,4.35-5.68,7.72-0.87,3.58-.07,7,0.35,10.54a18.78,18.78,0,0,1-6.74,16.8c-0.26-3.87-1.71-8.3-5.65-9.82-4.65-1.8-10,1.1-13.61,3.88-7.12,5.48-11.32,14.83-7.3,23.44,4.56,9.77,17.36,13.87,27.1,9.86,11-4.53,17.86-18.38,14.88-29.86,12.7,6.51,7,24,6.31,35a54.27,54.27,0,0,0,17.95-36.37c4.8,18.49,1.05,38.73-13.18,53-12.74,12-30.72,17.24-47.21,12-1.5-.75-3.75-1.5-5.25-2.25-18-8.24-27.73-28.48-27-48,0-6.74-6.74-13.49-13.49-9-12.74,9-8.24,27.73-6,41.28,1.12,5.22,1.76,12.18,6.42,15.62a58,58,0,0,1-19.21-22c-11.36-22.78-6.1-51.25,11.57-69.29a57.89,57.89,0,0,1,16-11.6c7-3.39,14.39-5,21.83-6.92,5.1-1.34,15.06-5,11.59-12.19-3-6.22-12.06-5.84-17.83-6-13.14-.41-28-1.4-37.45-11.85-7.88-8.75-10.11-21.6-7.81-33l0.52-2.26C19,353.36,23.72,359.67,29.74,362c4.31,1.69,10.81,1.42,13.68-2.76,3.75-5.48-.46-13.54-2.56-18.87-2.78-7.07-6.19-14.06-7.15-21.68-3.35-26.66,19.73-54.9,46-58.64Z" transform="translate(-15 -259.79)"/><path class="cls-2" d="M149.89,370.25s6.2-.71,7.52-0.45a2,2,0,1,1-.73,3.71C155.35,373.25,149.89,370.25,149.89,370.25Z" transform="translate(-15 -259.79)"/><path class="cls-1" d="M211.29,483.7a18.93,18.93,0,0,0,13.09,5.4c5.69,0,10.35-2.22,10.35-8.28,0-5.62-4.59-8.73-9.84-11.91-6.06-3.7-12.35-7.47-12.35-15.68,0-8.5,7-13.61,17.53-13.61,4.07,0,8.65.74,11.61,2.14l0.37,10.94h-0.22c-2.44-5.62-6.88-9.39-12.72-9.39-4.73,0-8.13,2.74-8.13,7.54,0,5.32,5,8.28,10.28,11.46,6.21,3.7,12.57,7.84,12.57,16.34,0,9.91-7.69,14.57-17.38,14.57-8.87,0-13.83-4.44-16.12-8.58Z" transform="translate(-15 -259.79)"/><path class="cls-1" d="M226.38,306.81c0-3.55-1.92-4.21-5.69-4.21-5.18,0-10.13,1.41-11.17,6.73h-0.3l0.37-10.5h42.82l0.37,10.5h-0.22c-1-5.32-6-6.73-11.17-6.73-3.77,0-5.62.67-5.62,4.21v37c0,1.26.22,6.51,1.92,6.51v0.22H226.38V306.81Z" transform="translate(-15 -259.79)"/><path class="cls-1" d="M258.84,294.69c1.7,0,5.92-.15,8.87-1.92v26.55c2.59-3.55,6.43-5.55,11.61-5.55,7.91,0,12.28,4.44,12.28,12.42v17.45c0,1.26,0,6.73,1.7,6.73v0.22H282.73V328.26c0-6.06-1.78-9.69-6.66-9.69-5.1,0-8.36,3.84-8.36,9.39v15.68c0,1.26,0,6.73,1.7,6.73v0.22H258.84V294.69Z" transform="translate(-15 -259.79)"/><path class="cls-1" d="M332.35,345c-3.33,4.22-8.5,6.43-14.57,6.43-11.46,0-18.49-7.39-18.49-18.71,0-10.8,6.51-19,17.6-19,12.28,0,16.27,9.47,16.27,17.45H308.83c0,8.8,3,16.12,12.72,16.12a14.9,14.9,0,0,0,9.69-3.4Zm-9-17c-0.07-5.55-2.37-10.95-7.1-10.95S309.5,322.34,309,328h14.35Z" transform="translate(-15 -259.79)"/><path class="cls-1" d="M318.4,376.92v2.33a15.81,15.81,0,0,0-8.12-1.93c-10.27,0-17.34,6.5-17.34,16.19,0,9.5,6.63,16.32,17.09,16.32a15.32,15.32,0,0,0,8.38-2.17v6c0,6.8-1.85,12.87-8,12.87-4.75,0-7.79-3.63-9.1-9.23h-0.1a5.82,5.82,0,0,0-2.54,10.54,16.22,16.22,0,0,0,9.23,3.05,34,34,0,0,0,6.61-.62c7-1.39,12.75-8.95,12.75-16.13V374.92C324.24,376.77,320.1,376.92,318.4,376.92Zm-7.68,30c-6.63,0-9.44-7.27-9.44-14.41s2.93-12.31,8.48-12.31c6.44,0,9.05,7.14,9.05,14.15S316.27,406.9,310.72,406.9Z" transform="translate(-15 -259.79)"/><path class="cls-1" d="M247,414.74a5.12,5.12,0,0,0-4.66-3.25c-3.77,0-6.36,3.92-14.12,3.92-10.87,0-17-8.13-17-18.49,0-11.31,7.4-19.15,18.27-19.15a16.89,16.89,0,0,1,9.24,2.51V358.69c1.7,0,5.84-.15,8.87-2v58.05H247Zm-8.28-25c0-5-3.33-8.65-8.43-8.65-6.29,0-9.39,5.69-9.39,14.64,0,9.39,3.33,16.2,9.84,16.2,6.14,0,8-6.06,8-12.87v-9.32Z" transform="translate(-15 -259.79)"/><path class="cls-1" d="M288.94,409c-3.33,4.22-8.5,6.43-14.57,6.43-11.46,0-18.49-7.39-18.49-18.71,0-10.8,6.51-19,17.6-19,12.28,0,16.27,9.47,16.27,17.45H265.42c0,8.8,3,16.12,12.72,16.12a14.9,14.9,0,0,0,9.69-3.4Zm-9-17c-0.07-5.55-2.37-10.95-7.1-10.95s-6.73,5.25-7.25,10.95h14.35Z" transform="translate(-15 -259.79)"/><path class="cls-1" d="M352,377.77c11.68,0,19.6,7.25,19.6,18.41s-7.91,19.3-19.89,19.3-19.82-7.91-19.82-18.93C331.9,385.31,340.11,377.77,352,377.77Zm9.91,19.75c0-8.13-3-16.42-10.5-16.42-6.43,0-9.84,5.92-9.84,14.27s3.25,16.71,10.94,16.71C359,412.08,361.93,405.57,361.93,397.51Z" transform="translate(-15 -259.79)"/><path class="cls-1" d="M379.52,379.84c1.7,0,5.92-.15,8.87-1.92v5.47c2.44-3.62,6.51-5.62,11.68-5.62,7.84,0,12.2,4.44,12.2,12.42v17.45c0,1.26,0,6.73,1.7,6.73v0.22H403.41V392.26c0-6.06-1.78-9.69-6.66-9.69-5.1,0-8.36,3.84-8.36,10.06v15c0,1.26,0,6.73,1.7,6.73v0.22H379.52V379.84Z" transform="translate(-15 -259.79)"/><path class="cls-1" d="M455.69,414.74a5.12,5.12,0,0,0-4.66-3.25c-3.77,0-6.36,3.92-14.12,3.92-10.87,0-17-8.13-17-18.49,0-11.31,7.4-19.15,18.27-19.15a16.89,16.89,0,0,1,9.24,2.51V358.69c1.7,0,5.84-.15,8.87-2v58.05h-0.59Zm-8.28-25c0-5-3.33-8.65-8.43-8.65-6.29,0-9.39,5.69-9.39,14.64,0,9.39,3.33,16.2,9.84,16.2,6.14,0,8-6.06,8-12.87v-9.32Z" transform="translate(-15 -259.79)"/><path class="cls-1" d="M461.83,414.59a90.74,90.74,0,0,0,4-8.8l18.71-44.37h3.55L505,402.69c1.33,3.18,4.73,11.09,7,11.68v0.22H500.13l-6.51-15.9H474.1L470.33,408c-1.26,3-2.29,5.84-.81,6.36v0.22h-7.69ZM492,394.78l-8.21-20.12-8.13,20.12H492Z" transform="translate(-15 -259.79)"/><path class="cls-1" d="M517.21,368.6c0-.89-0.3-4.07-1.18-5.47v-0.3h14.72c10.35,0,18,3.11,18,11.76,0,6.29-4.07,10.5-9.61,12.13,7.62,1.26,13.16,6,13.16,13.68,0,9.91-8.95,14.2-19.6,14.2H517.21v-46Zm12.94,17.16c7,0,9.47-4,9.47-9.69,0-7.17-4-9.76-9.76-9.76a20.2,20.2,0,0,0-3.18.3V385c0,0.67.3,0.74,1,.74h2.44Zm-3.48,23.37c0,1.48,2.44,1.85,4.66,1.85,7.17,0,10.58-3.25,10.58-10.28,0-8.43-4.73-11.31-12.94-11.31h-2.29v19.74Z" transform="translate(-15 -259.79)"/><path class="cls-1" d="M554.48,414.59a90.74,90.74,0,0,0,4-8.8l18.71-44.37h3.55l16.93,41.26c1.33,3.18,4.73,11.09,7,11.68v0.22H592.79l-6.51-15.9H566.76L563,408c-1.26,3-2.29,5.84-.81,6.36v0.22h-7.69Zm30.17-19.82-8.21-20.12-8.13,20.12h16.34Z" transform="translate(-15 -259.79)"/><path class="cls-1" d="M282.65,486.8c-3.18,4.36-8.36,6.43-14.27,6.43-10.72,0-18.19-7.17-18.19-18.71s7.1-19,20-19c4.29,0,8.5.74,10.87,2.14l0.3,9.61H281.1c-2.37-5.4-5.77-8.36-11.24-8.36-7.54,0-10,6.88-10,13.83,0,10.5,4.44,16.34,12.42,16.34a13.65,13.65,0,0,0,9.32-3.33Z" transform="translate(-15 -259.79)"/><path class="cls-1" d="M288.86,436.44c1.7,0,5.92-.15,8.87-1.92v26.55c2.59-3.55,6.43-5.55,11.61-5.55,7.91,0,12.28,4.44,12.28,12.42V485.4c0,1.26,0,6.73,1.7,6.73v0.22H312.75V470c0-6.06-1.78-9.69-6.66-9.69-5.1,0-8.36,3.84-8.36,9.39V485.4c0,1.26,0,6.73,1.7,6.73v0.22H288.86V436.44Z" transform="translate(-15 -259.79)"/><path class="cls-1" d="M349.43,455.52c11.68,0,19.6,7.25,19.6,18.41s-7.91,19.3-19.89,19.3-19.82-7.91-19.82-18.93C329.31,463.07,337.52,455.52,349.43,455.52Zm9.91,19.75c0-8.13-3-16.42-10.5-16.42-6.43,0-9.84,5.92-9.84,14.27s3.25,16.71,10.94,16.71C356.38,489.83,359.34,483.33,359.34,475.27Z" transform="translate(-15 -259.79)"/><path class="cls-1" d="M394.83,455.52c11.68,0,19.6,7.25,19.6,18.41s-7.91,19.3-19.89,19.3-19.82-7.91-19.82-18.93C374.72,463.07,382.92,455.52,394.83,455.52Zm9.91,19.75c0-8.13-3-16.42-10.5-16.42-6.43,0-9.84,5.92-9.84,14.27s3.25,16.71,10.94,16.71C401.78,489.83,404.74,483.33,404.74,475.27Z" transform="translate(-15 -259.79)"/><path class="cls-1" d="M422.34,436.44c1.63,0,5.92-.15,8.87-1.92V485.4c0,1.26,0,6.73,1.7,6.73v0.22H422.34V436.44Z" transform="translate(-15 -259.79)"/><path class="cls-2" d="M82.55,259.93c-15.5,8.09-29,25.31-26.73,44,1.5,14.22,17.22,19.46,28.45,26.95,6.74,5.24,12,9.73,17.22,16.47,6,7.75,7.86,17.26,10.65,26.43,4,13.21,10.43,29.76,26.46,29.47,5.24-17.32,27.13-30.12,44.32-23.21A16.52,16.52,0,0,0,170,372.75c-0.68.09-2.18,0.09-2.93,0.09-7.49-12.73-22.46-4.49-33.69-8.23-2.25-1.5-5.24-2.25-6-5.62a16.05,16.05,0,0,0,11.19,15.29c-2.27,2.27-2.87,2.87-3.78,3.93a23.34,23.34,0,0,1-9.63-31.34c1.62,4.83,7.54,6.81,12.17,5.64,5.35-1.36,8.86-6.61,9.24-11.94,0.78-10.83-9.54-21.8-20.38-21.71,9.26-5.32,22.11-6.1,31.32-.25-4.35-13.13-20.65-16.07-32.7-15.79a56.3,56.3,0,0,1,33.09-.2A56.94,56.94,0,0,1,199,354.67c1.32,27.7-18.38,52.57-44.56,60.46-12.14,3.66-25.68,4.66-36,12.83-2.64,2.1-4.86,4.34-5.67,7.71-0.87,3.58-.07,7,0.35,10.52A18.76,18.76,0,0,1,106.45,463c-0.26-3.87-1.7-8.3-5.64-9.81-4.65-1.79-10,1.1-13.6,3.88-7.11,5.47-11.3,14.81-7.29,23.41,4.56,9.76,17.35,13.86,27.07,9.85,11-4.52,17.85-18.36,14.86-29.83,12.69,6.5,7,24,6.31,35a54.22,54.22,0,0,0,17.93-36.33c4.8,18.47,1.05,38.69-13.17,52.91-12.73,12-30.69,17.22-47.16,12-1.5-.75-3.74-1.5-5.24-2.25-18-8.23-27.7-28.45-26.95-47.91,0-6.74-6.74-13.47-13.47-9-12.73,9-8.23,27.7-6,41.24,1.11,5.22,1.76,12.16,6.41,15.6a57.92,57.92,0,0,1-19.19-22C10,477,15.21,448.57,32.86,430.54A57.83,57.83,0,0,1,48.8,419c7-3.38,14.38-5,21.8-6.91,5.09-1.34,15-5,11.58-12.18-3-6.21-12-5.84-17.81-6-13.13-.41-28-1.4-37.41-11.84-7.87-8.74-10.1-21.58-7.8-32.93l0.52-2.26C19.34,353.4,24,359.71,30,362.06c4.31,1.69,10.8,1.42,13.66-2.76,3.75-5.47-.46-13.53-2.56-18.85-2.78-7.07-6.19-14-7.14-21.66-3.34-26.63,19.71-54.84,46-58.57Z" transform="translate(-15 -259.79)"/><path class="cls-2" d="M150.05,370.27s6.19-.71,7.51-0.45a2,2,0,1,1-.73,3.71C155.52,373.27,150.05,370.27,150.05,370.27Z" transform="translate(-15 -259.79)"/><path class="cls-1" d="M212.22,482.85a18.75,18.75,0,0,0,13,5.35c5.64,0,10.26-2.2,10.26-8.21,0-5.57-4.54-8.64-9.74-11.79-6-3.66-12.23-7.4-12.23-15.53,0-8.42,6.89-13.48,17.36-13.48a29.28,29.28,0,0,1,11.5,2.12l0.37,10.84h-0.22c-2.42-5.57-6.81-9.3-12.6-9.3-4.69,0-8.06,2.71-8.06,7.47,0,5.27,4.91,8.2,10.18,11.35,6.15,3.66,12.45,7.77,12.45,16.19,0,9.82-7.62,14.43-17.22,14.43-8.79,0-13.7-4.39-16-8.5Z" transform="translate(-15 -259.79)"/><path class="cls-1" d="M227.17,307.62c0-3.52-1.91-4.18-5.64-4.18-5.13,0-10,1.39-11.06,6.67h-0.29l0.37-10.4H253l0.37,10.4H253.1c-1-5.27-5.93-6.67-11.06-6.67-3.74,0-5.57.66-5.57,4.18v36.7c0,1.25.22,6.45,1.9,6.45V351H227.17V307.62Z" transform="translate(-15 -259.79)"/><path class="cls-1" d="M259.32,295.61c1.68,0,5.86-.15,8.79-1.9V320c2.56-3.52,6.37-5.49,11.5-5.49,7.84,0,12.16,4.4,12.16,12.31v17.29c0,1.25,0,6.67,1.68,6.67V351H283V328.87c0-6-1.76-9.6-6.59-9.6-5.05,0-8.28,3.81-8.28,9.3v15.53c0,1.25,0,6.67,1.68,6.67V351H259.32V295.61Z" transform="translate(-15 -259.79)"/><path class="cls-1" d="M332.14,345.5c-3.3,4.18-8.42,6.37-14.43,6.37-11.35,0-18.31-7.33-18.31-18.53,0-10.7,6.45-18.83,17.44-18.83,12.16,0,16.12,9.38,16.12,17.29h-24.1c0,8.72,3,16,12.6,16a14.76,14.76,0,0,0,9.6-3.37Zm-8.94-16.85c-0.07-5.49-2.34-10.84-7-10.84S309.5,323,309,328.65H323.2Z" transform="translate(-15 -259.79)"/><path class="cls-1" d="M318.32,377.07v2.31a15.67,15.67,0,0,0-8-1.92c-10.17,0-17.18,6.44-17.18,16,0,9.41,6.57,16.17,16.93,16.17a15.18,15.18,0,0,0,8.3-2.15v5.95c0,6.74-1.83,12.75-7.91,12.75-4.7,0-7.72-3.59-9-9.14h-0.1a5.77,5.77,0,0,0-2.51,10.44,16.06,16.06,0,0,0,9.15,3,33.7,33.7,0,0,0,6.55-.62c7-1.38,12.63-8.86,12.63-16V375.09C324.11,376.92,320,377.07,318.32,377.07Zm-7.6,29.7c-6.57,0-9.35-7.2-9.35-14.27s2.91-12.19,8.4-12.19c6.38,0,9,7.07,9,14S316.21,406.77,310.71,406.77Z" transform="translate(-15 -259.79)"/><path class="cls-1" d="M247.6,414.54a5.07,5.07,0,0,0-4.62-3.22c-3.74,0-6.3,3.88-14,3.88-10.77,0-16.85-8.06-16.85-18.31,0-11.21,7.33-19,18.09-19a16.74,16.74,0,0,1,9.16,2.49V359c1.68,0,5.79-.15,8.79-2v57.51H247.6Zm-8.21-24.76c0-4.91-3.3-8.57-8.35-8.57-6.23,0-9.3,5.64-9.3,14.51,0,9.3,3.3,16,9.74,16,6.08,0,7.91-6,7.91-12.75v-9.23Z" transform="translate(-15 -259.79)"/><path class="cls-1" d="M289.14,408.9c-3.3,4.18-8.42,6.37-14.43,6.37-11.35,0-18.31-7.33-18.31-18.53,0-10.7,6.45-18.83,17.44-18.83,12.16,0,16.12,9.38,16.12,17.29h-24.1c0,8.72,3,16,12.6,16a14.76,14.76,0,0,0,9.6-3.37ZM280.2,392c-0.07-5.49-2.34-10.84-7-10.84S266.5,386.41,266,392H280.2Z" transform="translate(-15 -259.79)"/><path class="cls-1" d="M351.62,377.91c11.57,0,19.41,7.18,19.41,18.24s-7.84,19.12-19.71,19.12-19.63-7.84-19.63-18.75C331.7,385.38,339.83,377.91,351.62,377.91Zm9.82,19.56c0-8.06-3-16.26-10.4-16.26-6.37,0-9.74,5.86-9.74,14.14s3.22,16.56,10.84,16.56C358.51,411.9,361.44,405.45,361.44,397.47Z" transform="translate(-15 -259.79)"/><path class="cls-1" d="M378.87,380c1.68,0,5.86-.15,8.79-1.91v5.42c2.42-3.59,6.45-5.57,11.57-5.57,7.77,0,12.09,4.4,12.09,12.31v17.29c0,1.25,0,6.67,1.68,6.67v0.22H402.53V392.27c0-6-1.76-9.6-6.59-9.6-5.05,0-8.28,3.81-8.28,10v14.87c0,1.25,0,6.67,1.68,6.67v0.22H378.87V380Z" transform="translate(-15 -259.79)"/><path class="cls-1" d="M454.32,414.54a5.07,5.07,0,0,0-4.62-3.22c-3.74,0-6.3,3.88-14,3.88-10.77,0-16.85-8.06-16.85-18.31,0-11.21,7.33-19,18.09-19a16.74,16.74,0,0,1,9.16,2.49V359c1.68,0,5.79-.15,8.79-2v57.51h-0.59Zm-8.21-24.76c0-4.91-3.3-8.57-8.35-8.57-6.23,0-9.3,5.64-9.3,14.51,0,9.3,3.3,16,9.74,16,6.08,0,7.91-6,7.91-12.75v-9.23Z" transform="translate(-15 -259.79)"/><path class="cls-1" d="M460.4,414.39a89.89,89.89,0,0,0,4-8.72l18.53-44h3.52l16.78,40.88c1.32,3.15,4.69,11,7,11.58v0.22H498.35l-6.45-15.75H472.56l-3.74,9.23c-1.25,3-2.27,5.79-.81,6.3v0.22H460.4Zm29.89-19.63-8.13-19.93-8.06,19.93h16.19Z" transform="translate(-15 -259.79)"/><path class="cls-1" d="M515.27,368.83c0-.88-0.29-4-1.17-5.42v-0.29h14.58c10.26,0,17.87,3.08,17.87,11.65,0,6.23-4,10.4-9.52,12,7.55,1.25,13,5.93,13,13.55,0,9.82-8.86,14.07-19.41,14.07H515.27V368.83Zm12.82,17c6.89,0,9.38-4,9.38-9.6,0-7.11-4-9.67-9.67-9.67a20,20,0,0,0-3.15.29v18.24c0,0.66.29,0.73,1,.73h2.42ZM524.64,409c0,1.47,2.42,1.83,4.61,1.83,7.11,0,10.48-3.22,10.48-10.18,0-8.35-4.69-11.21-12.82-11.21h-2.27V409Z" transform="translate(-15 -259.79)"/><path class="cls-1" d="M552.19,414.39a89.89,89.89,0,0,0,4-8.72l18.53-44h3.52L595,402.6c1.32,3.15,4.69,11,7,11.58v0.22H590.13l-6.45-15.75H564.35l-3.74,9.23c-1.25,3-2.27,5.79-.81,6.3v0.22h-7.62Zm29.89-19.63-8.13-19.93-8.06,19.93h16.19Z" transform="translate(-15 -259.79)"/><path class="cls-1" d="M282.91,485.92c-3.15,4.32-8.28,6.37-14.14,6.37-10.62,0-18-7.11-18-18.53s7-18.83,19.78-18.83c4.25,0,8.42.73,10.77,2.12l0.29,9.52h-0.22c-2.34-5.35-5.71-8.28-11.14-8.28-7.47,0-9.89,6.81-9.89,13.7,0,10.4,4.4,16.19,12.31,16.19a13.52,13.52,0,0,0,9.23-3.3Z" transform="translate(-15 -259.79)"/><path class="cls-1" d="M289.06,436c1.68,0,5.86-.15,8.79-1.9v26.3c2.56-3.52,6.37-5.49,11.5-5.49,7.84,0,12.16,4.4,12.16,12.31v17.29c0,1.25,0,6.67,1.68,6.67v0.22H312.72V469.29c0-6-1.76-9.6-6.59-9.6-5.05,0-8.28,3.81-8.28,9.3v15.53c0,1.25,0,6.67,1.68,6.67v0.22H289.06V436Z" transform="translate(-15 -259.79)"/><path class="cls-1" d="M349.06,454.94c11.57,0,19.41,7.18,19.41,18.24s-7.84,19.12-19.71,19.12-19.63-7.84-19.63-18.75C329.13,462.41,337.26,454.94,349.06,454.94Zm9.82,19.56c0-8.06-3-16.26-10.4-16.26-6.37,0-9.74,5.86-9.74,14.14s3.22,16.56,10.84,16.56C355.94,488.93,358.87,482.48,358.87,474.5Z" transform="translate(-15 -259.79)"/><path class="cls-1" d="M394,454.94c11.57,0,19.41,7.18,19.41,18.24s-7.84,19.12-19.71,19.12-19.63-7.84-19.63-18.75C374.11,462.41,382.24,454.94,394,454.94Zm9.82,19.56c0-8.06-3-16.26-10.4-16.26-6.37,0-9.74,5.86-9.74,14.14s3.22,16.56,10.84,16.56C400.92,488.93,403.85,482.48,403.85,474.5Z" transform="translate(-15 -259.79)"/><path class="cls-1" d="M421.28,436c1.61,0,5.86-.15,8.79-1.9v50.4c0,1.25,0,6.67,1.68,6.67v0.22H421.28V436Z" transform="translate(-15 -259.79)"/><path class="cls-2" d="M84.68,261.18c-15.36,8-28.71,25.07-26.48,43.61,1.48,14.09,17.06,19.28,28.18,26.7,6.67,5.19,11.86,9.64,17.06,16.31,6,7.68,7.79,17.09,10.55,26.18,4,13.09,10.33,29.48,26.21,29.19,5.19-17.16,26.88-29.84,43.9-23a16.36,16.36,0,0,0-12.73-7.25c-0.68.09-2.16,0.09-2.9,0.09-7.42-12.61-22.25-4.45-33.37-8.16-2.22-1.48-5.19-2.22-6-5.57a15.9,15.9,0,0,0,11.08,15.14c-2.24,2.24-2.84,2.84-3.74,3.89a23.12,23.12,0,0,1-9.54-31c1.61,4.78,7.47,6.75,12.05,5.59,5.3-1.35,8.78-6.55,9.16-11.83,0.77-10.73-9.45-21.59-20.19-21.51,9.17-5.27,21.9-6,31-.25-4.31-13-20.46-15.92-32.4-15.64a55.77,55.77,0,0,1,32.77-.19A56.41,56.41,0,0,1,200.06,355c1.31,27.44-18.21,52.07-44.15,59.89-12,3.62-25.44,4.62-35.61,12.71-2.62,2.08-4.81,4.3-5.62,7.64-0.86,3.55-.07,6.9.35,10.43a18.58,18.58,0,0,1-6.67,16.63c-0.25-3.83-1.69-8.22-5.59-9.72-4.6-1.78-9.89,1.09-13.47,3.84-7,5.42-11.2,14.68-7.22,23.2,4.51,9.67,17.18,13.73,26.82,9.76,10.88-4.48,17.68-18.19,14.72-29.55,12.57,6.44,6.91,23.77,6.25,34.68a53.71,53.71,0,0,0,17.76-36c4.75,18.3,1,38.32-13,52.41C122,522.81,104.18,528,87.86,522.81c-1.48-.74-3.71-1.48-5.19-2.22-17.8-8.16-27.44-28.18-26.7-47.46,0-6.67-6.67-13.35-13.35-8.9-12.61,8.9-8.16,27.44-6,40.85,1.1,5.17,1.74,12,6.35,15.45a57.37,57.37,0,0,1-19-21.78C12.77,476.22,18,448,35.46,430.19a57.29,57.29,0,0,1,15.79-11.47c6.89-3.35,14.24-4.91,21.6-6.85,5-1.33,14.91-5,11.47-12.06-3-6.15-11.93-5.78-17.65-6-13-.4-27.75-1.39-37.06-11.73-7.8-8.66-10-21.37-7.73-32.62l0.52-2.24c-0.34,6.51,4.29,12.76,10.25,15.09,4.27,1.67,10.7,1.4,13.53-2.73,3.72-5.42-.46-13.4-2.53-18.68-2.75-7-6.13-13.91-7.08-21.46-3.31-26.38,19.53-54.33,45.55-58Z" transform="translate(-15 -259.79)"/><path class="cls-2" d="M151.55,370.48s6.14-.7,7.44-0.44a1.93,1.93,0,1,1-.72,3.68C157,373.46,151.55,370.48,151.55,370.48Z" transform="translate(-15 -259.79)"/></svg>